# xmcd
#
# Track frame offsets:
#	150
#	9808
#	33500
#	55953
#	75983
#	101115
#	126007
#	145626
#	172040
#	196254
#	223554
#	248259
#	275543
#	300123
#
# Disc length: 4267 seconds
#
# Revision: 0
# Processed by: cddbd v1.5.2PL0 Copyright (c) Steve Scherf et al.
# Submitted via: EZCDAudioConverter 8.0.2.1
#
DISCID=a910a90e
DTITLE=Hòa Tấu. Lm.JB.Nguyễn Sang - Cung Đàn Thánh
DYEAR=1900
DGENRE=
TTITLE0=Giới thiệu
TTITLE1=Con dâng Chúa
TTITLE2=Cho con biết yêu thương
TTITLE3=Lời Mẹ nhắn nhủ
TTITLE4=Lắng nghe lời Chúa
TTITLE5=Khúc cảm tạ
TTITLE6=Ave Maria
TTITLE7=Trông cậy Chúa
TTITLE8=Ca khúc trầm hương
TTITLE9=Con đường Chúa đi qua
TTITLE10=Trái tim Chúa
TTITLE11=Kinh hòa bình
TTITLE12=Cầu cho cha mẹ
TTITLE13=Tiếng goi Fatima
EXTD=
EXTT0=
EXTT1=
EXTT2=
EXTT3=
EXTT4=
EXTT5=
EXTT6=
EXTT7=
EXTT8=
EXTT9=
EXTT10=
EXTT11=
EXTT12=
EXTT13=
PLAYORDER=
